# xmcd
#
# Track frame offsets:
# 150
# 17957
# 36370
# 52180
# 70527
# 82290
# 98142
# 114047
# 130160
# 148617
#
# Disc length: 2220 seconds
#
#
# Revision: 0
# Processed by: cddbd v1.4PL0 Copyright (c) Steve Scherf et al.
# Submitted via: FreeRIP 2.40 
#
DISCID=8908aa0a
DTITLE=Michelle Wright - Do right by me
DYEAR=1988
DGENRE=Country
TTITLE0=The Rhythm of Romance
TTITLE1=Do Right By Me
TTITLE2=I Want To Count On You
TTITLE3=I Wish I Were Only Lonely
TTITLE4=A Good Man Is Hard To Find
TTITLE5=Rock Me Gently
TTITLE6=New Fool At An Old Gamne
TTITLE7=With A Love Like Yours
TTITLE8=I Don't Want to Wonder
TTITLE9=Reaching For The Stars
EXTD=
EXTT0=
EXTT1=
EXTT2=
EXTT3=
EXTT4=
EXTT5=
EXTT6=
EXTT7=
EXTT8=
EXTT9=
PLAYORDER=
